<svg xmlns="http://www.w3.org/2000/svg" version="1.0" width="664.000000pt" height="666.000000pt" viewBox="0 0 664.000000 666.000000" preserveAspectRatio="xMidYMid meet">

<g transform="translate(0.000000,666.000000) scale(0.100000,-0.100000)" fill="#d3d3d3" stroke="none">
<path d="M3272 6598 c-54 -107 -83 -151 -128 -200 -24 -26 -44 -56 -44 -66 0 -10 -3 -22 -7 -26 -12 -12 -16 -39 -19 -126 -4 -124 25 -172 140 -229 49 -24 61 -35 85 -84 47 -95 90 -148 199 -247 37 -33 37 -25 5 -165 -8 -38 -19 -74 -24 -80 -5 -5 -9 -22 -9 -37 0 -16 -4 -36 -9 -46 -5 -9 -17 -34 -27 -55 -24 -50 -32 -54 -56 -29 l-21 20 31 44 c34 47 48 115 34 163 -14 49 -27 30 -27 -39 0 -40 -6 -70 -14 -80 -14 -16 -16 -16 -27 6 -17 30 -17 83 -1 108 9 15 9 23 1 28 -7 4 -22 25 -35 47 -12 22 -34 60 -48 85 -14 25 -41 92 -61 149 -37 111 -66 148 -54 69 4 -23 12 -56 19 -73 7 -16 18 -48 25 -70 14 -49 21 -66 51 -128 29 -60 31 -71 34 -127 1 -25 6 -53 10 -63 4 -10 3 -28 -2 -40 -6 -12 -8 -37 -5 -55 2 -18 -1 -39 -8 -47 -6 -8 -9 -18 -7 -23 3 -4 -4 -26 -16 -47 -24 -42 -56 -56 -75 -33 -11 14 -13 99 -5 237 5 86 -8 141 -32 141 -21 0 -25 -26 -18 -119 4 -62 2 -90 -6 -95 -6 -4 -33 8 -61 28 -28 20 -55 36 -60 36 -6 0 -10 4 -10 9 0 5 -9 13 -20 16 -30 9 -24 31 16 61 19 15 49 47 65 71 28 40 29 46 18 78 -7 20 -17 34 -22 32 -5 -1 -17 -26 -26 -55 -19 -55 -55 -102 -78 -102 -7 0 -13 -4 -13 -10 0 -15 -40 -12 -46 4 -9 23 15 96 64 191 43 84 46 95 46 168 0 79 -11 104 -38 94 -13 -5 -16 -22 -16 -80 0 -76 -20 -152 -62 -235 -28 -56 -45 -70 -62 -51 -14 16 -46 112 -46 140 0 10 -4 21 -10 24 -5 3 -10 19 -10 35 0 16 -4 32 -10 35 -5 3 -9 16 -9 28 0 12 -2 32 -6 44 -6 18 0 25 34 42 52 27 129 104 147 147 22 52 17 131 -10 189 -38 81 -99 136 -214 195 -35 18 -75 48 -90 68 -15 19 -39 49 -54 66 l-27 31 -1 -37 c0 -37 -16 -130 -27 -158 -4 -8 -5 -18 -5 -23 1 -4 -9 -29 -22 -55 -40 -80 -48 -123 -35 -199 6 -38 15 -72 20 -77 5 -6 9 -18 9 -27 0 -10 21 -41 48 -69 42 -45 54 -52 119 -68 l73 -17 2 -40 c3 -66 4 -79 10 -95 4 -8 12 -40 19 -70 6 -30 15 -59 18 -65 4 -5 13 -28 20 -49 23 -68 61 -120 114 -156 68 -47 146 -126 163 -165 18 -43 17 -188 -1 -310 -13 -91 -20 -122 -41 -195 -11 -37 -63 -99 -89 -106 -30 -7 -98 28 -126 66 -34 45 -31 78 13 139 39 55 66 78 125 107 36 18 66 62 76 111 5 26 3 31 -8 26 -8 -3 -15 -11 -15 -19 0 -8 -10 -30 -22 -49 -38 -57 -68 -58 -68 -1 0 19 6 52 14 74 12 34 20 111 17 160 -2 26 -21 10 -21 -17 0 -17 -4 -32 -9 -35 -5 -3 -7 -15 -4 -27 6 -23 -10 -39 -39 -39 -18 0 -59 70 -71 120 -3 14 -12 34 -20 44 -17 23 -41 13 -28 -12 5 -9 21 -48 36 -85 22 -54 36 -74 66 -94 22 -14 39 -32 39 -39 0 -17 -34 -78 -68 -124 -69 -92 -76 -87 -91 63 -7 67 -15 133 -18 147 -3 14 -6 43 -8 66 -1 22 -8 52 -15 65 -21 39 -21 78 0 119 11 21 17 46 14 55 -4 8 -1 22 6 30 7 9 9 23 4 37 -4 13 -7 28 -6 35 7 36 -76 148 -96 129 -5 -5 15 -53 28 -66 10 -10 30 -50 30 -60 0 -13 -57 -13 -65 0 -3 6 -14 10 -23 10 -11 0 -4 -13 24 -42 67 -71 68 -73 49 -102 -17 -26 -49 -34 -60 -16 -3 6 -15 10 -26 10 -11 0 -43 12 -71 28 -28 15 -59 31 -69 37 -11 5 -19 13 -19 17 0 5 -6 8 -13 8 -7 0 -24 15 -37 33 -13 17 -45 57 -72 88 -26 30 -48 59 -48 63 0 4 15 26 34 49 48 60 67 102 73 162 12 118 -103 258 -232 281 -22 3 -45 11 -52 16 -6 5 -17 8 -25 7 -28 -5 -89 21 -131 55 -24 20 -47 36 -50 36 -3 0 -3 -47 0 -104 4 -78 2 -113 -8 -138 -8 -18 -14 -62 -14 -98 1 -53 7 -78 37 -140 62 -130 123 -167 258 -156 73 6 77 5 87 -16 16 -36 139 -184 172 -207 16 -12 39 -21 50 -21 12 0 21 -4 21 -10 0 -5 10 -10 23 -10 32 0 98 -59 125 -111 35 -70 41 -122 42 -321 0 -118 4 -189 10 -193 6 -4 8 -15 5 -24 -3 -10 4 -39 15 -65 11 -26 20 -53 20 -59 0 -18 -86 -8 -103 11 -23 26 -57 91 -57 108 0 29 -24 8 -31 -26 -11 -53 50 -150 95 -150 13 0 25 -3 28 -6 4 -3 36 -6 73 -7 61 -2 69 -5 90 -30 16 -21 24 -47 28 -97 3 -38 11 -78 16 -89 6 -11 11 -40 11 -65 0 -44 -1 -46 -29 -46 -62 0 -198 84 -266 163 -19 22 -35 47 -35 54 0 7 -4 13 -8 13 -11 0 -32 61 -32 93 0 14 -4 29 -10 32 -12 8 -13 102 -1 109 4 3 9 30 9 60 0 29 5 62 11 72 19 34 41 174 41 259 0 68 -3 85 -19 99 -25 22 -43 12 -35 -19 17 -70 27 -194 16 -208 -5 -7 -12 -25 -16 -41 -13 -52 -56 -69 -111 -44 -41 19 -55 57 -55 153 0 90 16 219 30 246 13 25 -23 123 -46 127 -10 2 -23 8 -28 13 -6 5 -14 9 -18 9 -16 0 -7 -27 23 -69 30 -40 36 -67 30 -138 -2 -25 -30 -12 -93 41 -35 29 -73 59 -85 65 -46 24 -24 -19 50 -97 47 -50 79 -94 91 -125 17 -46 17 -49 0 -68 -22 -24 -33 -24 -91 2 -27 12 -59 27 -73 33 -43 18 -70 57 -64 92 3 18 1 35 -5 38 -6 4 -11 16 -11 27 0 10 -4 19 -8 19 -17 0 -20 -13 -10 -36 16 -34 -5 -54 -53 -54 -32 0 -48 8 -82 39 -49 47 -121 157 -107 166 38 23 73 190 56 260 -11 45 -86 115 -161 152 -66 32 -75 34 -150 30 -44 -3 -93 -8 -108 -12 -17 -4 -38 -3 -53 4 -13 6 -35 16 -49 21 -14 6 -36 15 -50 22 -34 16 -36 10 -14 -36 10 -22 19 -47 19 -56 0 -9 4 -20 9 -25 12 -14 30 -95 25 -110 -3 -7 -1 -16 5 -20 6 -3 11 -22 11 -41 0 -19 9 -53 21 -76 26 -50 148 -178 171 -178 9 0 20 -4 23 -10 15 -24 175 -4 175 23 0 18 18 4 46 -36 17 -23 59 -64 95 -90 35 -26 69 -50 74 -55 12 -8 79 -44 150 -80 50 -25 160 -96 181 -116 6 -6 23 -20 37 -31 15 -11 27 -24 27 -28 0 -5 9 -21 19 -36 36 -50 36 -182 0 -189 -9 -2 -44 27 -79 65 -95 101 -126 122 -182 123 -56 0 -67 -23 -20 -42 82 -33 103 -48 172 -116 41 -41 83 -82 93 -90 20 -18 23 -58 4 -65 -7 -3 -66 -5 -131 -5 -87 1 -121 5 -131 15 -16 16 -29 42 -75 158 -56 140 -100 224 -116 218 -24 -9 -16 -74 21 -158 7 -16 18 -42 24 -57 27 -68 34 -84 42 -100 28 -55 0 -58 -81 -9 -66 39 -75 65 -73 200 2 105 0 119 -28 189 -17 42 -39 88 -50 103 -10 15 -19 30 -19 34 0 15 -95 135 -106 135 -27 0 -19 -19 58 -135 103 -157 117 -192 95 -239 -8 -16 -17 -18 -71 -13 -58 6 -116 23 -181 52 -16 8 -39 15 -50 17 -18 3 -20 11 -20 94 -1 79 -4 96 -27 135 -39 67 -115 119 -174 119 -18 0 -36 5 -39 10 -3 6 -17 10 -31 10 -13 0 -24 -4 -24 -10 0 -5 -16 -10 -35 -10 -19 0 -43 -4 -53 -9 -74 -38 -103 -44 -193 -38 l-91 7 36 -49 c20 -27 36 -52 36 -56 0 -3 13 -25 28 -48 16 -23 39 -68 51 -99 41 -102 190 -218 281 -218 60 0 110 20 156 62 l44 41 65 -22 c36 -11 73 -21 83 -21 32 0 117 -47 148 -81 16 -20 36 -51 43 -70 37 -95 57 -124 111 -157 30 -18 73 -37 95 -43 22 -5 47 -13 55 -17 8 -5 96 -9 195 -11 178 -2 235 -11 235 -38 0 -18 -38 -35 -61 -28 -11 4 -27 1 -35 -6 -11 -9 -18 -9 -26 -1 -17 17 -153 16 -166 -1 -14 -16 -5 -28 33 -46 17 -7 40 -18 53 -24 31 -15 149 -14 164 1 7 7 22 12 35 12 13 0 32 6 43 12 16 10 24 10 40 0 11 -6 25 -12 32 -12 7 0 26 -21 42 -48 38 -60 132 -176 186 -227 23 -22 56 -60 73 -85 28 -40 31 -53 32 -115 0 -60 -4 -76 -28 -112 -26 -37 -94 -93 -115 -93 -4 0 -27 -9 -49 -20 -81 -39 -219 -22 -243 30 -4 8 -12 25 -19 38 -11 21 -8 27 31 64 66 61 98 78 150 78 61 0 76 7 94 42 23 45 7 51 -43 17 -68 -47 -78 -36 -78 84 -1 53 -4 100 -8 104 -5 4 -15 3 -25 -3 -12 -8 -17 -28 -19 -70 -4 -75 -20 -128 -55 -180 -35 -53 -57 -62 -80 -34 -23 28 -61 155 -54 178 4 10 38 46 77 81 65 58 70 66 67 99 -3 33 -28 60 -28 29 0 -19 -27 -72 -44 -86 -10 -8 -20 -6 -40 10 -20 16 -26 29 -26 59 0 45 -14 60 -29 31 -17 -31 -13 -50 21 -98 l33 -45 -24 -19 c-13 -10 -27 -19 -32 -19 -18 0 -114 112 -173 201 -49 75 -70 98 -105 116 -24 11 -48 26 -54 32 -13 13 -27 14 -27 3 0 -5 28 -38 63 -73 34 -35 81 -86 102 -114 22 -27 43 -51 48 -53 4 -2 7 -8 7 -13 0 -5 20 -34 45 -64 42 -52 61 -102 53 -142 -5 -29 -123 -31 -178 -3 -99 51 -154 130 -166 239 -4 39 -18 86 -35 122 -16 32 -29 63 -29 69 0 5 -4 18 -9 28 -5 9 -16 35 -26 57 -19 46 -38 71 -79 103 -50 39 -61 27 -24 -25 38 -53 88 -136 88 -146 0 -4 -13 -7 -28 -7 -36 0 -86 49 -149 142 -24 37 -49 70 -54 74 -18 10 -23 -5 -11 -31 14 -29 -2 -65 -28 -65 -25 0 -82 44 -155 119 -38 39 -74 71 -81 71 -19 0 -28 -39 -14 -64 17 -31 110 -104 166 -131 27 -13 85 -40 129 -61 44 -20 111 -58 148 -83 38 -25 76 -50 86 -55 29 -15 40 -42 34 -80 -7 -42 -29 -48 -59 -15 -36 40 -99 68 -188 84 -49 8 -101 15 -117 15 -15 0 -31 5 -34 11 -4 6 -14 8 -22 5 -30 -12 -64 6 -84 46 -17 32 -23 37 -35 28 -12 -11 -10 -20 13 -62 15 -28 34 -52 43 -55 8 -2 23 -9 32 -14 10 -5 39 -9 66 -9 26 0 52 -4 58 -9 5 -5 34 -12 64 -14 30 -3 62 -8 70 -10 8 -3 27 -8 43 -11 15 -4 27 -13 27 -21 0 -8 -1 -15 -2 -15 -43 -8 -157 -9 -235 -2 -89 8 -108 13 -144 38 -23 16 -49 34 -58 39 -10 6 -35 25 -58 43 -22 17 -46 32 -53 32 -8 0 -10 8 -5 23 27 89 27 138 -1 217 -22 60 -85 124 -137 139 -23 7 -55 16 -72 22 -19 5 -33 5 -39 -1 -6 -6 -22 -10 -37 -10 -33 0 -88 -18 -115 -39 -12 -9 -32 -23 -44 -31 -12 -8 -41 -29 -64 -46 -46 -35 -98 -52 -168 -55 -20 0 -25 -29 -5 -29 24 0 151 -105 193 -160 62 -79 146 -123 259 -136 57 -7 126 18 172 60 26 24 28 25 53 9 98 -64 100 -66 100 -94 0 -22 -5 -29 -19 -29 -11 0 -23 -4 -26 -10 -3 -5 -24 -10 -45 -10 -44 0 -82 -36 -73 -70 8 -29 35 -25 69 11 l29 31 159 -6 c87 -3 162 -8 165 -11 7 -8 -30 -37 -82 -64 -27 -14 -58 -21 -97 -21 -107 0 -82 -46 26 -49 56 -1 68 2 116 33 29 19 64 44 78 55 14 11 31 21 38 21 6 0 12 5 12 10 0 6 8 10 18 10 10 0 23 5 29 11 7 7 38 10 80 7 56 -3 75 -8 106 -32 73 -56 96 -116 68 -183 -21 -50 -43 -56 -87 -23 -22 16 -46 30 -54 30 -9 0 -20 4 -25 8 -32 27 -145 41 -145 18 0 -15 21 -26 48 -26 20 0 110 -46 132 -67 13 -13 12 -17 -9 -34 -16 -13 -33 -18 -48 -14 -13 3 -23 1 -23 -5 0 -13 -87 -13 -95 0 -4 6 -10 8 -15 5 -8 -5 -87 19 -122 36 -10 5 -39 9 -66 9 -26 0 -52 4 -57 8 -6 5 -36 15 -67 22 -47 11 -65 11 -103 0 -49 -14 -64 -7 -65 30 -1 30 -85 133 -125 154 -54 28 -162 29 -225 2 -56 -24 -131 -94 -176 -164 -29 -45 -45 -58 -109 -89 -77 -37 -93 -53 -51 -53 42 0 144 -47 244 -111 72 -47 82 -50 217 -61 11 -1 52 8 102 24 60 18 100 69 144 186 l12 34 76 -5 c68 -5 169 -26 263 -55 98 -31 146 -42 160 -37 8 3 20 0 26 -8 9 -11 4 -26 -26 -70 -20 -31 -48 -61 -61 -67 -56 -26 -224 -45 -246 -29 -6 4 -45 10 -87 13 -43 2 -81 7 -87 10 -10 7 -41 -3 -41 -13 1 -36 71 -53 215 -53 164 1 235 15 293 56 26 19 58 37 71 41 23 7 24 6 18 -32 -13 -78 -72 -183 -104 -183 -19 0 -16 -27 3 -34 26 -10 57 17 83 70 56 117 64 162 42 242 -9 31 -9 47 -2 56 6 7 50 28 99 47 48 18 102 41 120 51 48 26 154 25 199 -3 38 -24 49 -45 69 -134 30 -135 12 -215 -50 -215 -27 0 -36 7 -56 41 -52 85 -66 102 -97 115 -49 20 -48 1 2 -51 25 -25 48 -59 52 -75 l6 -30 -60 0 c-41 0 -72 -7 -103 -22 -52 -27 -90 -72 -73 -89 8 -8 22 -3 51 21 45 36 92 49 172 50 129 0 127 -82 -5 -151 -37 -20 -49 -21 -205 -16 -267 10 -332 20 -431 66 -91 43 -131 49 -171 28 -33 -17 -24 -37 16 -37 18 0 35 -3 39 -6 3 -3 28 -7 56 -9 60 -4 71 -10 71 -35 0 -28 -64 -58 -130 -61 -43 -2 -55 0 -55 11 -1 23 -37 92 -65 124 -31 36 -108 86 -132 86 -10 0 -27 5 -38 12 -14 9 -25 9 -42 1 -13 -6 -42 -16 -65 -23 -23 -7 -64 -33 -92 -57 -52 -45 -74 -84 -106 -183 -26 -82 -39 -103 -97 -159 l-53 -51 87 0 c48 0 90 -4 93 -10 3 -5 24 -10 46 -10 22 0 62 -7 90 -16 51 -17 152 -13 164 7 4 5 14 9 25 9 53 0 153 83 166 138 10 39 33 62 65 62 15 0 31 4 34 10 3 6 17 10 30 10 13 0 27 5 30 10 3 6 15 10 26 10 10 0 27 4 37 9 38 21 149 49 182 47 63 -6 215 -37 224 -46 6 -6 18 -10 28 -10 72 0 90 -61 28 -93 -19 -9 -57 -27 -85 -38 l-50 -21 28 -10 c44 -15 111 7 145 48 15 19 40 49 55 69 16 19 48 44 73 56 24 13 82 61 127 109 79 82 145 128 195 136 12 2 32 6 45 9 189 43 417 25 417 -32 0 -10 -18 -54 -41 -100 -38 -77 -40 -87 -36 -145 3 -35 9 -80 13 -101 14 -83 -46 -127 -174 -127 -43 0 -82 4 -88 8 -5 5 -40 17 -79 27 -38 10 -76 23 -84 29 -11 8 -15 8 -18 -1 -3 -7 -17 -13 -31 -13 -37 0 -72 -11 -72 -21 0 -5 14 -9 30 -9 17 0 38 -4 48 -9 9 -5 29 -14 43 -21 40 -18 71 -65 63 -95 -4 -15 -13 -25 -24 -25 -11 0 -22 -5 -25 -10 -8 -12 -99 -13 -123 -1 -9 5 -28 13 -42 19 -14 5 -51 22 -83 36 -86 39 -143 36 -207 -10 -44 -32 -57 -36 -110 -36 -65 0 -83 9 -105 53 -16 30 -77 67 -83 49 -2 -5 -13 -10 -25 -10 -26 0 -87 -40 -87 -57 0 -17 52 -17 69 0 10 10 16 7 32 -13 43 -56 28 -110 -32 -110 -15 0 -31 -4 -34 -10 -3 -5 -28 -10 -56 -10 -27 0 -49 -4 -49 -10 0 -23 83 -48 105 -31 5 5 26 12 45 16 19 4 53 16 74 26 22 11 50 19 62 19 13 0 26 5 29 10 3 6 23 10 44 10 20 0 42 5 48 11 5 5 33 11 62 11 29 1 54 5 57 10 3 4 37 8 75 8 76 0 122 -19 112 -47 -5 -12 -23 -14 -99 -11 -64 2 -97 -1 -106 -10 -6 -6 -20 -12 -29 -12 -10 0 -19 -3 -21 -7 -1 -5 -20 -16 -40 -25 -21 -10 -38 -22 -38 -28 0 -13 43 -13 56 0 6 6 32 11 60 13 27 2 55 6 61 10 7 4 58 11 113 14 84 5 100 4 100 -9 0 -17 -34 -49 -70 -65 -43 -20 -204 -75 -235 -80 -16 -3 -35 -9 -41 -14 -6 -4 -26 -10 -45 -12 -37 -4 -53 -9 -117 -38 -24 -10 -40 -23 -37 -28 8 -14 71 -3 141 24 33 13 89 29 125 35 35 7 72 16 81 21 10 5 31 9 48 9 33 0 85 27 145 74 60 47 93 62 107 48 21 -21 113 -14 155 10 32 19 55 23 148 26 147 4 155 -3 82 -70 -45 -41 -59 -61 -64 -90 -4 -26 -2 -38 6 -38 17 0 90 52 126 89 48 51 78 61 185 61 53 0 101 -5 106 -10 6 -6 41 -11 77 -12 75 -1 87 -7 115 -58 17 -31 23 -35 53 -32 38 4 82 39 75 59 -3 7 4 22 16 33 17 16 36 20 88 20 61 0 69 -2 93 -30 40 -44 83 -58 178 -58 66 0 92 5 123 22 60 32 58 46 -8 46 -30 0 -57 4 -60 9 -3 4 -28 11 -56 13 -28 3 -53 8 -57 12 -11 11 33 48 74 62 44 16 184 19 199 4 9 -9 210 -19 216 -10 2 3 13 23 24 45 18 36 24 40 62 43 51 4 127 -31 237 -108 39 -27 79 -49 91 -50 11 0 25 -5 31 -11 8 -8 81 -11 231 -10 239 1 252 -1 307 -59 22 -23 37 -30 67 -30 21 0 38 4 38 8 0 12 -88 76 -155 113 -59 32 -62 33 -171 30 -87 -1 -113 1 -123 13 -16 19 5 56 31 56 10 0 18 4 18 9 0 6 16 11 35 13 57 5 45 23 -17 26 -74 4 -106 -13 -138 -75 l-25 -48 -56 0 c-71 0 -88 12 -183 125 -53 62 -76 98 -74 112 5 33 58 57 135 60 37 2 68 8 68 13 0 14 -99 18 -223 10 l-104 -7 -66 -62 c-37 -34 -80 -67 -95 -74 -16 -7 -71 -12 -126 -12 -90 0 -100 2 -142 28 -24 16 -51 38 -61 48 -24 28 -62 103 -77 154 -7 25 -17 53 -22 63 -5 10 -10 43 -11 73 -1 30 -5 57 -10 60 -11 7 -10 90 1 112 5 9 19 39 32 66 32 67 106 146 187 200 62 41 82 51 137 72 36 13 138 11 168 -4 32 -16 96 -98 97 -124 0 -9 4 -19 8 -22 5 -3 21 -49 36 -103 29 -102 33 -113 61 -176 29 -66 114 -147 217 -205 18 -11 62 -37 98 -57 36 -21 106 -58 155 -83 50 -24 98 -49 107 -53 23 -12 78 -12 78 0 0 12 -62 50 -162 101 -49 24 -88 49 -88 57 0 10 30 13 139 13 156 0 162 -2 252 -93 54 -55 79 -61 79 -19 0 20 -11 39 -35 61 -19 17 -35 35 -35 40 0 20 84 67 137 77 21 4 44 11 51 17 23 18 62 -8 62 -41 0 -55 79 -140 145 -157 54 -13 177 -17 188 -6 6 6 18 11 27 11 9 0 41 12 71 27 45 23 70 28 153 31 l98 4 -39 41 c-54 58 -85 102 -128 183 -20 38 -46 80 -58 92 -29 31 -145 100 -177 105 -14 2 -33 8 -44 12 -23 10 -106 -18 -159 -53 -41 -27 -99 -133 -95 -172 2 -17 -5 -24 -36 -35 -21 -7 -44 -11 -51 -9 -23 9 -84 -13 -140 -50 -29 -20 -57 -36 -62 -36 -5 0 -27 13 -49 30 -41 31 -109 41 -131 19 -14 -14 -292 -14 -306 0 -6 6 -19 11 -28 11 -20 0 -53 17 -97 50 -34 25 -76 101 -87 157 -8 40 2 42 53 9 168 -106 279 -126 467 -86 50 11 141 5 150 -9 17 -28 275 9 275 40 0 3 -38 3 -85 1 -46 -2 -92 -1 -102 4 -10 4 -31 8 -47 8 -40 1 -43 22 -7 41 17 8 31 20 31 26 0 14 -51 5 -132 -21 -79 -26 -144 -35 -153 -21 -9 15 28 73 66 106 26 21 40 25 99 25 38 0 72 -5 75 -10 4 -6 21 -10 38 -10 18 0 41 0 52 0 17 0 63 5 88 9 4 0 7 6 7 11 0 6 -37 10 -90 10 -81 0 -90 2 -90 19 0 14 10 20 39 25 21 3 45 13 52 23 13 15 8 16 -70 10 -46 -4 -89 -11 -96 -17 -6 -5 -14 -7 -17 -4 -16 16 -168 -79 -168 -105 0 -5 -4 -11 -9 -13 -5 -1 -22 -25 -38 -53 -35 -61 -53 -65 -127 -30 -51 24 -205 148 -213 170 -4 12 51 73 82 92 139 85 186 98 329 90 56 -4 119 -12 141 -19 22 -6 44 -11 48 -10 5 1 27 -4 51 -12 24 -8 93 -18 155 -22 101 -6 116 -10 157 -37 57 -38 82 -23 29 17 -19 15 -35 33 -35 39 0 19 53 47 102 52 41 5 44 4 73 -37 17 -24 50 -53 75 -66 40 -21 55 -23 130 -19 103 5 128 17 218 100 86 80 104 91 180 107 34 7 62 16 62 19 0 4 -17 13 -37 20 -50 18 -125 72 -203 146 -73 68 -98 83 -152 88 -21 2 -41 7 -45 10 -15 15 -115 6 -158 -14 -94 -44 -140 -126 -132 -235 6 -83 6 -83 -98 -104 -33 -7 -69 -15 -80 -20 -64 -23 -90 -29 -98 -21 -9 9 15 50 56 98 19 21 16 43 -5 43 -22 0 -79 -52 -93 -86 -13 -32 -16 -34 -65 -34 -90 0 -206 66 -225 129 -8 26 24 98 57 127 21 20 95 23 131 7 173 -82 252 -109 281 -95 12 6 33 13 49 16 28 7 38 26 12 26 -8 0 -15 4 -15 9 0 5 -30 9 -66 10 -89 2 -138 29 -81 47 29 8 57 34 57 51 0 17 -52 17 -68 1 -9 -9 -54 -12 -162 -10 -182 3 -187 0 -259 -104 -19 -27 -46 -62 -60 -77 -25 -27 -115 -77 -140 -77 -6 0 -19 -4 -29 -10 -9 -5 -33 -15 -52 -23 -54 -22 -82 -35 -118 -57 -53 -32 -96 -29 -132 8 -49 51 -35 97 38 132 15 7 35 16 44 21 10 5 25 9 35 9 9 0 30 4 47 10 17 5 43 12 57 15 36 7 122 86 169 155 22 32 58 74 81 94 l43 36 103 0 c57 0 111 -4 121 -9 26 -15 147 -41 186 -41 19 0 65 11 103 24 49 17 92 24 152 26 83 1 121 11 121 31 0 5 -8 12 -17 15 -10 3 -25 9 -34 14 -19 10 -66 5 -139 -15 -74 -20 -96 -19 -114 7 -27 39 -17 139 17 171 20 20 66 37 97 37 23 0 33 -8 54 -43 83 -143 199 -181 338 -113 69 34 126 94 167 175 31 61 65 93 139 131 23 12 42 25 42 30 0 4 -26 10 -57 14 -31 4 -61 10 -67 15 -6 4 -36 17 -66 27 -30 10 -75 31 -99 46 -40 25 -54 28 -131 28 -49 0 -110 -7 -141 -16 -92 -27 -159 -112 -159 -201 0 -29 -4 -43 -13 -43 -7 0 -33 -9 -56 -21 -66 -31 -73 -19 -78 133 -2 68 -6 133 -9 146 -6 32 -29 27 -44 -9 -11 -25 -10 -44 6 -117 37 -174 23 -338 -36 -399 -29 -30 -94 -31 -153 -3 -83 40 -93 57 -66 112 22 43 49 54 90 37 21 -8 33 -9 41 -1 14 14 1 32 -22 32 -10 0 -22 5 -25 10 -9 14 -89 12 -103 -2 -7 -7 -12 -27 -12 -46 0 -44 -34 -92 -65 -92 -13 0 -26 -4 -29 -9 -3 -4 -18 -11 -34 -14 -26 -5 -293 -174 -300 -189 -2 -5 -9 -8 -16 -8 -7 0 -29 -11 -49 -25 -20 -13 -56 -30 -79 -36 -24 -7 -48 -16 -54 -21 -6 -4 -39 -8 -72 -9 -34 -1 -62 -6 -62 -10 0 -12 -117 -11 -125 1 -3 6 -19 10 -34 10 -85 0 -60 115 42 192 19 16 42 28 50 28 7 0 17 3 21 7 27 28 197 46 211 23 3 -6 50 -10 105 -10 86 0 104 3 149 26 53 28 88 60 77 71 -3 4 -20 -3 -36 -15 -56 -42 -62 -29 -26 53 17 36 21 57 14 61 -15 10 -44 -32 -64 -91 -23 -70 -29 -75 -93 -75 -101 0 -127 17 -68 45 66 32 74 39 85 68 23 61 -9 58 -104 -9 -34 -24 -69 -44 -77 -44 -9 0 -19 -4 -22 -10 -3 -5 -35 -10 -70 -10 -35 0 -66 -4 -69 -9 -3 -4 -24 -11 -46 -14 -26 -3 -60 -19 -93 -45 -86 -65 -117 -62 -140 17 -19 67 -37 65 -37 -6 0 -66 27 -123 59 -123 11 0 21 -8 23 -17 4 -19 -20 -99 -37 -121 -24 -33 -75 -82 -85 -82 -5 0 -10 -4 -10 -10 0 -5 -9 -10 -19 -10 -11 0 -23 -4 -26 -10 -3 -6 -30 -10 -59 -10 -46 0 -56 4 -70 25 -28 42 -17 98 37 200 6 11 25 47 42 80 94 181 169 245 286 245 21 0 41 5 44 10 3 6 41 10 84 10 42 0 81 4 86 9 6 6 33 12 60 15 28 3 104 17 170 31 168 36 168 36 190 36 10 0 24 4 31 9 6 6 38 11 71 13 32 2 64 7 70 10 6 4 47 8 91 8 87 2 125 -12 137 -51 7 -24 18 -25 34 -6 8 10 9 16 1 21 -5 3 -10 14 -10 24 0 23 -40 60 -65 60 -50 0 -123 9 -148 20 -23 9 -28 16 -25 38 3 24 11 29 71 47 70 22 86 41 40 52 -16 4 -33 11 -40 16 -28 22 -133 -79 -120 -115 8 -23 -27 -67 -67 -82 -22 -9 -70 -19 -106 -22 -160 -13 -200 74 -114 246 35 71 93 129 114 116 6 -4 17 -2 25 5 10 8 19 9 35 0 11 -6 25 -8 30 -5 6 3 22 0 37 -8 36 -18 84 -39 153 -67 30 -12 60 -27 67 -32 7 -5 21 -7 32 -3 10 3 22 1 26 -5 8 -14 83 -12 119 3 26 11 27 14 12 26 -10 9 -55 17 -112 22 -71 5 -100 11 -115 25 -30 27 -51 84 -42 114 4 14 8 34 9 45 3 33 23 75 35 75 6 0 32 -17 58 -38 90 -74 147 -110 201 -128 61 -20 74 -21 108 -10 15 5 30 1 50 -12 39 -28 127 -52 165 -45 53 10 108 43 158 94 49 50 76 115 95 224 7 42 50 120 84 150 11 10 20 21 20 24 0 3 -61 7 -136 8 -82 1 -141 6 -147 12 -15 15 -94 14 -137 -2 -120 -44 -220 -124 -220 -178 0 -15 -4 -31 -10 -34 -5 -3 -10 -19 -10 -35 0 -16 5 -32 10 -35 6 -3 10 -14 10 -24 0 -10 7 -31 14 -47 8 -15 13 -31 10 -36 -7 -11 -40 -10 -64 2 -89 45 -101 52 -135 83 -16 15 -43 36 -58 45 -23 14 -27 23 -25 50 3 29 10 37 58 61 30 16 66 33 80 38 98 40 162 84 147 100 -4 3 -17 1 -30 -5 -12 -6 -47 -18 -77 -27 -30 -9 -63 -20 -72 -26 -10 -5 -23 -9 -28 -9 -20 0 -127 -79 -157 -114 -32 -39 -49 -92 -58 -181 -3 -33 -10 -64 -15 -69 -7 -7 -30 -5 -68 3 -31 7 -85 16 -120 18 -57 5 -64 8 -74 32 -26 68 23 190 111 274 33 31 64 57 70 57 6 0 11 5 11 10 0 6 -13 10 -29 10 -61 0 -210 -206 -211 -292 0 -15 -4 -29 -9 -33 -10 -5 -11 -15 -12 -70 -1 -16 -4 -34 -9 -40 -4 -5 -11 -26 -14 -45 -25 -127 -119 -280 -182 -296 -89 -22 -188 125 -149 220 14 33 70 86 92 86 20 0 129 115 150 160 12 25 29 81 38 125 31 156 55 180 275 268 56 22 76 33 106 54 40 30 49 29 82 -6 37 -40 116 -81 155 -81 18 0 38 -5 44 -11 7 -7 19 -8 30 -3 20 9 30 11 56 13 28 2 120 94 148 148 21 42 25 66 30 183 5 122 8 140 33 188 15 30 26 56 23 58 -2 2 -39 -7 -83 -21 -43 -14 -89 -25 -101 -25 -12 0 -25 -5 -28 -10 -3 -6 -37 -9 -75 -8 -61 1 -74 -2 -112 -27 -66 -44 -149 -126 -166 -165 -20 -45 -22 -96 -5 -139 16 -41 16 -41 1 -41 -9 0 -113 -46 -178 -80 -9 -4 -31 -11 -50 -15 -19 -4 -40 -12 -47 -17 -24 -20 -35 3 -28 61 7 65 -13 146 -35 146 -12 0 -16 -23 -20 -112 -4 -95 -8 -116 -27 -141 -38 -51 -65 -105 -70 -137 -2 -16 -8 -59 -12 -95 -12 -88 -23 -112 -68 -146 -170 -129 -260 -108 -138 32 71 80 85 108 85 167 0 64 -22 58 -34 -9 -5 -27 -12 -51 -15 -54 -4 -3 -17 -22 -30 -43 -43 -70 -103 -76 -115 -11 -6 27 -10 33 -20 25 -13 -11 -15 -110 -3 -141 11 -28 27 -121 27 -155 0 -19 4 -36 8 -39 14 -9 -1 -163 -20 -202 -35 -72 -207 -33 -252 57 -20 41 -8 60 62 95 55 28 80 60 69 88 -11 28 -35 17 -100 -44 -44 -40 -67 -71 -75 -98 -18 -59 -15 -75 18 -107 17 -16 30 -37 30 -47 0 -10 -24 -41 -54 -69 -59 -55 -86 -103 -111 -192 -19 -68 -67 -129 -86 -110 -16 16 -16 108 0 127 6 7 8 15 5 19 -3 3 1 20 9 39 24 51 56 158 63 208 4 25 10 50 14 55 10 14 10 88 0 100 -5 6 -12 41 -16 78 -9 85 2 96 97 97 79 0 114 20 171 95 49 65 37 80 -16 19 -39 -43 -46 -47 -96 -51 -59 -5 -110 9 -110 29 0 7 18 39 41 71 28 40 56 65 89 82 64 32 151 65 173 65 17 0 27 4 74 28 13 7 28 12 35 12 17 1 82 59 97 88 7 13 16 49 21 80 15 90 26 106 121 177 49 36 96 79 104 95 8 16 15 55 15 86 0 54 1 56 23 50 58 -18 148 -19 191 -2 123 47 190 197 155 344 -7 26 -15 52 -19 57 -17 24 -32 107 -26 142 8 44 9 94 2 100 -3 3 -21 -7 -41 -22 -59 -45 -178 -108 -230 -121 -34 -9 -133 -117 -161 -179 -46 -97 -24 -207 53 -275 34 -30 35 -33 28 -82 -6 -42 -15 -58 -51 -94 -24 -24 -49 -44 -56 -44 -7 0 -25 10 -39 23 -25 21 -45 80 -65 190 -3 20 -10 40 -15 43 -29 18 -16 -83 27 -213 26 -78 30 -123 13 -140 -30 -30 -79 39 -138 192 -49 127 -63 160 -99 232 -29 58 -24 76 22 76 15 0 29 3 32 8 3 5 13 9 22 9 29 0 91 59 115 108 30 63 31 197 3 260 -10 23 -23 42 -28 42 -4 0 -8 5 -8 11 0 6 -13 29 -28 52 -36 54 -54 108 -52 155 3 62 2 66 -15 52 -8 -7 -15 -18 -15 -25 0 -18 -129 -138 -181 -169 -53 -30 -83 -71 -123 -168 -65 -153 -4 -285 156 -339 34 -11 40 -18 64 -83 33 -91 37 -101 64 -161 35 -78 51 -121 57 -150 2 -11 8 -32 14 -47 6 -15 8 -32 4 -38 -4 -6 -1 -17 5 -25 8 -9 9 -25 5 -42 -5 -16 -9 -33 -10 -39 -8 -35 -42 -89 -73 -112 -38 -29 -124 -64 -162 -66 -21 -1 -25 4 -28 31 -4 37 6 53 74 126 52 55 104 121 104 132 0 37 -168 -124 -199 -191 -7 -16 -17 -37 -22 -46 -5 -10 -9 -27 -9 -38 0 -24 -39 -87 -58 -95 -25 -9 -32 5 -32 64 0 67 16 96 98 180 30 31 53 65 57 84 4 17 10 37 14 42 13 18 7 178 -6 182 -13 5 -33 -55 -33 -98 0 -14 -3 -29 -7 -33 -4 -4 -8 -22 -9 -40 -1 -52 -28 -98 -79 -136 -61 -46 -101 -109 -115 -178 -6 -32 -15 -65 -20 -74 -6 -10 -10 -33 -10 -52 0 -19 -4 -38 -10 -41 -5 -3 -10 -15 -10 -26 0 -10 -4 -27 -9 -37 -5 -9 -13 -28 -19 -42 -52 -124 -61 -140 -85 -140 -57 0 -77 82 -32 129 52 55 125 147 125 157 0 6 -6 17 -14 23 -11 9 -17 4 -30 -23 -20 -42 -93 -136 -105 -136 -5 0 -17 20 -26 44 -16 43 -16 45 6 83 13 24 20 47 16 57 -9 24 -21 14 -48 -41 -18 -39 -23 -65 -23 -133 0 -77 3 -91 34 -152 18 -37 54 -90 78 -118 44 -50 44 -52 44 -123 0 -50 -7 -87 -21 -120 -12 -27 -21 -55 -21 -63 0 -8 -4 -14 -8 -14 -4 0 -14 -16 -21 -35 -21 -59 -66 -45 -143 45 -41 48 -103 215 -91 245 3 9 0 22 -7 29 -18 23 -1 289 20 310 6 6 10 19 10 30 1 32 37 105 75 152 32 38 58 54 208 126 88 42 176 118 137 118 -6 0 -28 -12 -50 -26 -22 -15 -43 -24 -47 -21 -12 13 16 55 94 138 92 99 120 136 152 204 51 109 57 133 36 141 -24 10 -40 -14 -54 -77 -13 -60 -54 -134 -104 -186 -34 -37 -62 -42 -75 -15 -11 22 -5 123 8 136 5 5 10 20 10 33 0 13 4 31 10 41 5 9 16 34 25 55 27 67 47 111 67 155 21 46 18 63 -9 46 -16 -10 -74 -118 -105 -191 -8 -21 -20 -33 -32 -33 -27 0 -166 145 -198 208 -16 28 -28 54 -28 57 0 3 18 8 40 11 22 4 43 11 46 15 3 5 13 9 23 9 23 0 107 74 126 111 17 31 21 204 6 213 -4 3 -11 18 -14 34 -4 18 -36 58 -87 108 -82 81 -130 157 -130 207 0 42 -13 32 -48 -35z"/>
<path d="M4670 2126 c0 -37 44 -66 99 -66 39 0 52 5 74 28 34 35 28 62 -13 62 -22 0 -29 -5 -32 -22 -4 -33 -41 -35 -66 -4 -26 34 -62 35 -62 2z"/>
<path d="M1704 2023 c8 -21 9 -333 2 -341 -17 -16 1 -22 65 -22 43 0 68 4 64 10 -11 17 -14 119 -4 125 5 4 16 -9 23 -27 8 -18 29 -50 48 -70 l33 -38 118 -1 c157 -2 155 -3 237 211 44 116 60 150 68 150 4 0 6 -81 4 -180 l-2 -180 89 0 c120 0 141 6 173 46 21 28 25 43 22 76 -5 56 -25 98 -46 98 -9 0 -20 5 -23 11 -4 6 -28 9 -54 7 l-46 -3 -3 39 -3 38 70 -4 71 -4 0 38 0 38 -175 0 c-170 0 -175 -1 -165 -19 8 -15 4 -36 -17 -90 -16 -39 -31 -70 -36 -68 -4 1 -26 40 -50 87 l-42 85 -108 3 -108 3 6 -23 c4 -17 -6 -39 -36 -81 -22 -31 -44 -55 -48 -53 -9 6 -7 129 3 144 5 9 -12 12 -64 12 -64 0 -71 -2 -66 -17z m384 -134 c29 -57 62 -114 74 -126 l20 -22 -33 -20 c-39 -24 -45 -25 -54 -11 -10 16 -23 12 -30 -10 -14 -44 -37 -19 -124 128 -31 52 -31 61 -5 92 43 52 76 81 87 78 6 -2 36 -51 65 -109z m453 -72 c5 -8 5 -25 0 -78 -1 -10 -52 -30 -62 -24 -9 6 -13 108 -4 117 8 8 59 -3 66 -15z"/>
<path d="M2769 2022 c7 -14 -2 -52 -38 -159 -26 -77 -55 -152 -64 -166 -9 -15 -17 -29 -17 -32 0 -3 23 -5 50 -5 46 0 63 10 41 24 -5 3 -3 22 4 43 13 37 15 38 65 41 28 2 58 -2 65 -8 20 -17 29 -68 15 -85 -11 -13 -2 -15 64 -15 42 0 76 3 76 6 0 3 -6 18 -14 32 -8 15 -26 61 -41 102 -15 41 -35 98 -45 125 -10 28 -23 64 -28 80 -8 29 -11 30 -76 33 -63 3 -67 2 -57 -16z m69 -133 c2 -13 8 -28 13 -33 18 -19 9 -26 -32 -26 -44 0 -43 -1 -18 68 11 29 33 24 37 -9z"/>
<path d="M3085 1868 c0 -95 -4 -181 -9 -190 -7 -16 -2 -18 55 -18 l64 0 0 87 0 88 39 3 c24 2 42 -2 47 -10 12 -19 11 -126 -1 -149 -10 -18 -7 -19 60 -19 64 0 81 6 64 23 -7 7 -5 322 3 342 4 12 -8 15 -66 15 -68 0 -71 -1 -61 -19 12 -23 13 -101 1 -119 -5 -8 -23 -12 -47 -10 l-39 3 0 73 0 72 -55 0 -55 0 0 -172z"/>
<path d="M3570 2033 c-64 -24 -120 -111 -120 -186 0 -56 30 -117 77 -156 37 -30 40 -31 140 -31 l102 0 16 30 c8 16 15 31 15 35 0 10 -38 5 -74 -10 -88 -37 -166 29 -166 141 0 100 55 148 145 125 56 -14 55 -14 55 7 0 37 -32 52 -106 51 -38 0 -76 -3 -84 -6z"/>
<path d="M3825 1847 l0 -192 62 3 61 4 -5 65 c-5 77 7 81 42 14 44 -81 44 -81 172 -81 79 0 118 4 126 13 7 6 29 48 51 92 21 44 41 86 45 94 4 8 12 16 18 18 13 5 15 -184 2 -192 -24 -16 -3 -25 57 -25 59 0 65 2 59 18 -8 21 -9 331 -1 339 16 16 2 23 -43 23 -56 0 -50 7 -118 -132 -21 -43 -42 -76 -48 -75 -9 3 -8 184 1 199 3 5 -27 8 -66 8 -48 0 -69 -3 -64 -11 3 -6 6 -88 6 -182 -1 -131 -4 -172 -13 -172 -13 0 -75 83 -100 133 -7 15 -22 37 -32 49 l-20 22 62 71 c33 39 61 75 61 81 0 5 -25 9 -55 9 -52 0 -55 -1 -55 -25 0 -30 -72 -137 -84 -125 -4 4 -7 40 -4 79 l4 71 -61 0 -60 0 0 -193z"/>
<path d="M4590 1864 c3 -97 2 -178 -2 -181 -22 -13 -2 -23 43 -23 61 0 62 1 124 128 25 51 50 90 55 87 13 -8 13 -182 0 -190 -25 -15 -5 -25 53 -25 l62 0 0 190 0 190 -45 0 c-42 -1 -47 -4 -71 -43 -26 -43 -63 -119 -73 -149 -3 -10 -12 -18 -19 -18 -11 0 -13 21 -11 105 l3 105 -62 0 -62 0 5 -176z"/>
<path d="M5697 1473 c3 -10 17 -30 31 -45 20 -22 35 -28 69 -28 44 0 62 15 78 68 6 20 3 22 -25 22 -25 0 -31 -4 -26 -15 4 -10 -2 -19 -17 -24 -29 -11 -47 -3 -47 20 0 15 -7 19 -35 19 -28 0 -33 -3 -28 -17z"/>
<path d="M1060 1379 c-67 -30 -120 -90 -120 -136 0 -7 -6 -22 -12 -33 -10 -16 -10 -24 0 -40 6 -11 12 -29 12 -41 0 -29 41 -82 83 -108 40 -25 169 -31 208 -11 63 33 119 120 119 186 0 69 -52 145 -123 179 -61 30 -106 31 -167 4z m129 -70 c35 -33 52 -77 50 -127 -3 -62 -24 -105 -60 -121 -25 -11 -35 -11 -63 3 -41 19 -57 38 -73 85 -19 55 -15 92 15 136 39 56 87 65 131 24z"/>
<path d="M1525 1388 c-11 -6 -27 -15 -35 -20 -8 -5 -22 -11 -30 -14 -9 -3 -29 -26 -45 -52 -26 -40 -30 -57 -30 -114 0 -58 4 -72 30 -109 40 -57 79 -77 156 -79 124 -4 134 -1 149 49 8 30 8 32 -13 25 -12 -4 -29 -8 -37 -9 -8 -1 -28 -6 -43 -10 -17 -4 -33 -3 -39 3 -6 6 -16 8 -22 6 -7 -3 -25 9 -41 26 -26 27 -30 40 -33 100 -4 64 -2 73 22 105 25 32 31 35 81 35 30 0 57 -4 60 -10 13 -20 25 -9 25 23 0 25 -6 35 -27 45 -33 15 -101 15 -128 0z"/>
<path d="M3186 1372 c-59 -31 -92 -79 -107 -152 -9 -48 -8 -61 10 -100 42 -94 91 -123 211 -122 43 0 83 3 89 6 9 6 41 63 41 74 0 2 -12 1 -27 -3 -16 -4 -35 -8 -43 -9 -8 -1 -23 -6 -34 -11 -11 -5 -26 -4 -38 4 -10 6 -23 9 -27 7 -11 -7 -44 22 -59 51 -7 12 -12 51 -12 87 0 55 4 69 26 95 23 28 32 31 80 31 30 0 54 -4 54 -10 0 -5 7 -10 15 -10 23 0 18 46 -7 70 -32 29 -109 26 -172 -8z"/>
<path d="M5158 1383 c-68 -4 -78 -9 -57 -30 12 -12 8 -308 -5 -335 -7 -17 0 -18 91 -18 153 0 213 37 213 132 0 39 -6 54 -31 83 -29 33 -35 35 -91 35 l-61 0 5 70 c3 39 5 69 4 68 0 -1 -31 -3 -68 -5z m120 -205 c31 -31 -1 -118 -43 -118 -12 0 -15 14 -15 65 0 61 1 65 23 65 13 0 28 -5 35 -12z"/>
<path d="M5610 1374 c0 -6 2 -13 5 -16 8 -8 8 -320 0 -340 -6 -16 0 -18 48 -18 l54 0 57 115 c32 63 62 113 67 109 16 -10 11 -172 -7 -199 l-16 -25 68 0 69 0 0 190 0 190 -51 0 -52 0 -36 -72 c-20 -40 -41 -80 -46 -88 -5 -8 -11 -23 -14 -32 -3 -10 -11 -18 -17 -18 -8 0 -10 30 -7 104 l3 104 -62 4 c-41 2 -63 -1 -63 -8z"/>
<path d="M685 1190 l0 -190 63 0 c61 0 72 6 52 26 -7 7 -10 66 -8 155 l3 144 34 3 c18 2 38 -1 44 -7 6 -6 19 -11 29 -11 14 0 18 8 18 35 l0 35 -117 0 -118 0 0 -190z"/>
<path d="M1710 1366 c0 -7 8 -16 18 -18 11 -3 41 -51 76 -122 32 -64 62 -116 67 -116 5 0 9 -8 9 -18 0 -25 -36 -44 -71 -37 -25 6 -30 3 -39 -20 -5 -14 -10 -28 -10 -31 0 -2 26 -4 59 -4 93 0 115 27 191 235 12 33 26 68 31 77 5 10 9 24 9 32 0 27 30 27 40 0 13 -33 13 -73 -1 -153 -17 -95 -34 -131 -62 -128 -21 2 -22 -2 -25 -67 -2 -49 1 -72 10 -77 20 -13 41 -10 35 5 -3 7 3 27 14 45 l19 31 109 0 c102 0 111 -2 125 -22 9 -12 16 -33 16 -46 0 -19 5 -23 23 -20 18 2 23 10 25 45 3 40 4 42 40 45 32 3 37 6 34 27 -2 12 2 36 8 52 12 28 15 29 75 29 l63 0 6 -35 c4 -20 4 -45 1 -55 -6 -19 -1 -20 63 -20 38 0 71 3 74 6 4 3 -2 22 -12 42 -10 20 -22 46 -26 57 -4 11 -18 49 -31 85 -13 36 -33 93 -44 128 l-21 62 -69 0 c-64 0 -68 -1 -58 -18 9 -15 5 -37 -22 -113 -71 -202 -61 -184 -99 -184 l-35 0 0 140 c0 77 4 148 9 158 8 16 -4 17 -178 17 -175 0 -186 -1 -175 -17 8 -14 5 -33 -14 -83 -14 -35 -29 -66 -34 -67 -5 -2 -29 35 -53 82 l-43 85 -63 0 c-48 0 -64 -4 -64 -14z m508 -173 l3 -133 -46 0 c-48 0 -67 18 -47 43 9 11 13 35 28 175 6 50 7 53 32 50 l27 -3 3 -132z m345 4 c2 -18 -3 -22 -28 -22 -28 0 -30 2 -27 33 1 19 8 44 14 55 11 21 12 21 25 -11 7 -18 14 -43 16 -55z"/>
<path d="M2778 1368 c17 -17 17 -339 0 -356 -9 -9 3 -12 58 -12 l69 0 0 76 0 77 54 17 c65 22 82 38 91 87 16 95 -24 123 -176 123 -84 0 -105 -3 -96 -12z m158 -55 c28 -37 10 -133 -25 -133 -7 0 -11 26 -11 75 0 77 10 92 36 58z"/>
<path d="M3427 1373 c-4 -3 -7 -19 -7 -35 0 -30 25 -39 47 -17 7 7 19 9 27 6 14 -5 16 -29 16 -147 0 -78 -5 -150 -10 -161 -10 -18 -7 -19 52 -19 l63 0 -3 160 c-3 145 -2 161 14 167 10 4 19 2 22 -5 6 -20 40 -14 44 8 2 12 8 21 13 20 6 0 10 -65 10 -175 l0 -175 98 0 c98 0 119 6 165 44 33 29 32 113 -3 146 -29 27 -31 36 -10 56 24 25 19 74 -12 106 l-27 28 -246 0 c-136 0 -250 -3 -253 -7z m441 -85 c-2 -31 -8 -44 -20 -46 -15 -3 -18 4 -18 36 0 42 5 52 27 52 10 0 13 -11 11 -42z m31 -139 c12 -28 12 -35 -2 -58 -10 -16 -25 -26 -39 -26 -21 0 -23 5 -26 58 -3 57 -3 57 25 57 22 0 31 -7 42 -31z"/>
<path d="M4045 1190 l0 -190 116 0 c124 0 129 2 129 51 0 16 -5 18 -44 13 -25 -4 -56 -4 -71 0 -24 6 -26 10 -23 59 l3 52 43 -2 c41 -2 42 -1 42 32 0 33 -1 34 -42 37 -39 3 -43 6 -46 31 -6 51 21 65 87 46 10 -3 16 6 18 29 l3 32 -108 0 -107 0 0 -190z"/>
<path d="M4325 1190 l0 -190 56 0 56 0 -5 90 -5 90 57 0 56 0 0 -68 c0 -37 -5 -73 -11 -79 -21 -21 2 -33 59 -33 l57 0 0 190 0 190 -62 0 c-58 0 -78 -10 -53 -25 6 -3 10 -31 10 -61 l0 -54 -56 0 -57 0 6 70 6 70 -57 0 -57 0 0 -190z"/>
<path d="M4705 1369 c9 -14 10 -343 1 -358 -5 -8 13 -11 61 -11 l68 0 -4 91 -3 90 48 -3 49 -3 3 -69 c2 -39 -2 -74 -8 -80 -20 -20 -9 -26 53 -26 l62 0 0 190 0 190 -64 0 c-51 0 -62 -3 -53 -12 7 -7 12 -38 12 -70 l0 -58 -51 0 -51 0 4 70 4 70 -69 0 c-45 0 -66 -4 -62 -11z"/>
<path d="M5420 1371 c0 -6 5 -13 10 -16 6 -4 10 -70 10 -165 0 -95 -4 -161 -10 -165 -25 -16 -5 -25 55 -25 65 0 81 10 54 37 -12 12 -8 299 5 326 7 15 2 17 -58 17 -36 0 -66 -4 -66 -9z"/>
<path d="M3673 719 c-50 -25 -93 -66 -93 -88 0 -10 -5 -22 -11 -28 -16 -16 -14 -107 4 -144 22 -46 85 -105 122 -113 46 -11 109 -13 120 -5 6 4 21 9 34 11 22 3 69 64 58 75 -3 2 -30 -5 -62 -16 -53 -19 -59 -19 -96 -4 -58 23 -78 58 -80 137 -2 74 15 110 59 127 30 12 99 4 119 -13 20 -16 26 -3 12 24 -7 12 -15 30 -19 38 -12 25 -116 25 -167 -1z"/>
<path d="M1510 726 c0 -6 62 -123 116 -218 24 -43 44 -80 44 -82 0 -12 -60 -35 -75 -29 -10 3 -21 0 -26 -8 -19 -31 -10 -39 45 -39 83 0 102 24 191 253 56 141 65 132 65 -62 0 -96 -4 -162 -10 -166 -25 -15 -5 -25 53 -25 l62 0 0 87 0 88 45 0 45 0 3 -73 c2 -46 -2 -79 -9 -88 -10 -12 -1 -14 52 -14 l64 0 0 190 0 190 -64 0 c-54 0 -62 -2 -52 -14 7 -9 11 -38 9 -73 l-3 -58 -45 0 -45 0 0 73 0 72 -107 0 -107 0 5 -30 c4 -18 0 -43 -9 -62 -9 -18 -19 -45 -22 -60 -8 -31 -35 -38 -35 -10 0 9 -17 49 -38 87 l-37 70 -57 3 c-32 2 -58 1 -58 -2z"/>
<path d="M2245 537 l0 -192 53 5 c57 5 57 5 102 98 45 95 61 122 70 122 9 0 6 -96 -5 -187 l-3 -31 65 -4 c70 -3 78 -1 62 18 -6 8 -9 77 -7 189 l3 176 -50 -3 -50 -3 -37 -70 c-21 -38 -41 -83 -46 -100 -5 -16 -16 -31 -25 -33 -14 -3 -15 6 -11 70 3 40 7 88 9 106 l4 32 -67 0 -67 0 0 -193z"/>
<path d="M2656 713 c13 -27 17 -324 5 -336 -23 -23 -7 -27 100 -27 l111 0 34 34 c29 29 34 41 34 80 0 37 -5 52 -26 73 -26 25 -26 26 -8 59 14 26 16 40 8 71 -13 53 -39 63 -163 63 -95 0 -102 -1 -95 -17z m162 -70 c4 -28 -14 -63 -33 -63 -11 0 -15 12 -15 46 0 41 2 45 23 42 14 -2 23 -11 25 -25z m0 -119 c44 -31 15 -139 -33 -121 -11 5 -15 22 -15 72 0 70 7 78 48 49z"/>
<path d="M2986 722 c-2 -4 -1 -14 5 -22 12 -20 12 -317 -1 -325 -31 -19 0 -25 113 -23 l122 3 3 33 c3 31 2 33 -18 22 -11 -6 -40 -10 -63 -8 l-42 3 0 60 0 60 35 0 c31 0 35 3 38 28 2 17 -2 27 -10 28 -7 1 -24 2 -38 2 -22 2 -25 7 -28 45 l-3 42 50 0 c50 0 51 1 51 30 l0 30 -104 0 c-58 0 -107 -4 -110 -8z"/>
<path d="M3265 542 l0 -191 61 -3 60 -3 -4 83 c-4 65 -2 82 9 83 63 5 78 8 97 18 29 15 52 62 52 104 0 24 -8 41 -31 63 -29 28 -35 29 -137 32 l-107 4 0 -190z m151 111 c27 -36 9 -123 -25 -123 -7 0 -11 24 -11 70 0 72 10 87 36 53z"/>
<path d="M3935 540 l0 -190 50 0 50 0 53 105 c28 58 57 105 63 105 7 0 10 -33 7 -105 l-3 -105 63 0 c34 0 62 4 62 10 0 6 -4 10 -10 10 -14 0 -13 315 0 341 10 18 7 19 -44 19 l-55 0 -53 -102 c-72 -138 -81 -139 -76 -4 l4 106 -56 0 -55 0 0 -190z"/>
<path d="M4316 714 c-3 -9 -6 -24 -6 -35 0 -17 5 -18 41 -13 l40 7 -3 -162 -3 -161 60 0 60 0 -3 161 -3 162 40 -7 c34 -5 41 -3 46 14 3 11 13 20 21 20 13 0 15 -23 12 -157 -2 -87 -6 -165 -8 -173 -4 -13 13 -15 109 -18 122 -3 131 0 131 46 0 20 -3 21 -20 12 -12 -6 -40 -10 -63 -8 l-42 3 0 60 0 60 38 -2 c36 -2 38 -1 35 25 -2 22 -9 28 -38 32 -33 5 -35 7 -38 47 l-3 42 48 3 c44 3 48 5 48 28 l0 25 -246 2 c-217 3 -248 1 -253 -13z"/>
<path d="M4856 714 c-3 -8 -6 -24 -6 -35 0 -17 6 -19 43 -17 l42 3 0 -140 c0 -77 -4 -148 -9 -158 -7 -15 -2 -17 55 -17 l64 0 0 157 0 158 25 -1 c14 0 32 -3 40 -5 11 -3 15 5 15 31 l0 35 -131 3 c-113 2 -132 0 -138 -14z"/>
</g>
</svg>