<svg width="71" height="13" viewBox="0 0 71 13" fill="none" xmlns="http://www.w3.org/2000/svg">
<g clip-path="url(#clip0_1_6)">
<path d="M3.816 12.328C3.072 12.328 2.508 12.14 2.124 11.764C1.74 11.396 1.548 10.868 1.548 10.18V8.00799C1.548 7.81599 1.5 7.67599 1.404 7.58799C1.308 7.49199 1.18 7.44399 1.02 7.44399H0.624001V5.97999H1.02C1.18 5.97999 1.308 5.93199 1.404 5.83599C1.5 5.73999 1.548 5.59999 1.548 5.41599V3.24399C1.548 2.54799 1.74 2.01599 2.124 1.64799C2.508 1.27999 3.072 1.09599 3.816 1.09599H4.512V2.55999H4.296C4.008 2.55999 3.788 2.63599 3.636 2.78799C3.492 2.93999 3.42 3.15999 3.42 3.44799V5.36799C3.42 5.71999 3.372 5.99599 3.276 6.19599C3.18 6.39599 3.028 6.53999 2.82 6.62799C2.62 6.71599 2.36 6.77999 2.04 6.81999V6.60399C2.36 6.63599 2.62 6.69999 2.82 6.79599C3.028 6.88399 3.18 7.02799 3.276 7.22799C3.372 7.42799 3.42 7.70399 3.42 8.05599V9.97599C3.42 10.264 3.492 10.484 3.636 10.636C3.788 10.788 4.008 10.864 4.296 10.864H4.512V12.328H3.816ZM67.2041 12.328H66.5081V10.864H66.7241C67.0121 10.864 67.2281 10.788 67.3721 10.636C67.5241 10.484 67.6001 10.264 67.6001 9.97599V8.05599C67.6001 7.70399 67.6481 7.42799 67.7441 7.22799C67.8481 7.02799 68.0001 6.88399 68.2001 6.79599C68.4001 6.69999 68.6601 6.63599 68.9801 6.60399V6.81999C68.6601 6.77999 68.4001 6.71599 68.2001 6.62799C68.0001 6.53999 67.8481 6.39599 67.7441 6.19599C67.6481 5.99599 67.6001 5.71999 67.6001 5.36799V3.44799C67.6001 3.15999 67.5241 2.93999 67.3721 2.78799C67.2281 2.63599 67.0121 2.55999 66.7241 2.55999H66.5081V1.09599H67.2041C67.9561 1.09599 68.5201 1.27999 68.8961 1.64799C69.2801 2.01599 69.4721 2.54799 69.4721 3.24399V5.41599C69.4721 5.59999 69.5201 5.73999 69.6161 5.83599C69.7121 5.93199 69.8401 5.97999 70.0001 5.97999H70.3961V7.44399H70.0001C69.8401 7.44399 69.7121 7.49199 69.6161 7.58799C69.5201 7.67599 69.4721 7.81599 69.4721 8.00799V10.18C69.4721 10.868 69.2801 11.396 68.8961 11.764C68.5201 12.14 67.9561 12.328 67.2041 12.328Z" fill="#6FAAFF"/>
<path d="M10.4979 8.68L10.5459 6.4L13.5579 3.544H15.7899L12.8979 6.484L11.9259 7.276L10.4979 8.68ZM8.94994 10V1.096H10.8219V10H8.94994ZM13.7619 10L11.5779 7.288L12.7539 5.836L16.0299 10H13.7619ZM20.7958 3.448C21.3078 3.448 21.7638 3.552 22.1638 3.76C22.5718 3.96 22.8918 4.272 23.1238 4.696C23.3558 5.112 23.4718 5.648 23.4718 6.304V10H21.5998V6.592C21.5998 6.072 21.4838 5.688 21.2518 5.44C21.0278 5.192 20.7078 5.068 20.2918 5.068C19.9958 5.068 19.7278 5.132 19.4878 5.26C19.2558 5.38 19.0718 5.568 18.9358 5.824C18.8078 6.08 18.7438 6.408 18.7438 6.808V10H16.8718V1.096H18.7438V5.332L18.3238 4.792C18.5558 4.36 18.8878 4.028 19.3198 3.796C19.7518 3.564 20.2438 3.448 20.7958 3.448ZM26.8035 10L24.0915 3.544H26.0235L28.2795 9.1H27.3195L29.6595 3.544H31.4595L28.7355 10H26.8035ZM35.9724 10V8.74L35.8524 8.464V6.208C35.8524 5.808 35.7284 5.496 35.4804 5.272C35.2404 5.048 34.8684 4.936 34.3644 4.936C34.0204 4.936 33.6804 4.992 33.3444 5.104C33.0164 5.208 32.7364 5.352 32.5044 5.536L31.8324 4.228C32.1844 3.98 32.6084 3.788 33.1044 3.652C33.6004 3.516 34.1044 3.448 34.6164 3.448C35.6004 3.448 36.3644 3.68 36.9084 4.144C37.4524 4.608 37.7244 5.332 37.7244 6.316V10H35.9724ZM34.0044 10.096C33.5004 10.096 33.0684 10.012 32.7084 9.844C32.3484 9.668 32.0724 9.432 31.8804 9.136C31.6884 8.84 31.5924 8.508 31.5924 8.14C31.5924 7.756 31.6844 7.42 31.8684 7.132C32.0604 6.844 32.3604 6.62 32.7684 6.46C33.1764 6.292 33.7084 6.208 34.3644 6.208H36.0804V7.3H34.5684C34.1284 7.3 33.8244 7.372 33.6564 7.516C33.4964 7.66 33.4164 7.84 33.4164 8.056C33.4164 8.296 33.5084 8.488 33.6924 8.632C33.8844 8.768 34.1444 8.836 34.4724 8.836C34.7844 8.836 35.0644 8.764 35.3124 8.62C35.5604 8.468 35.7404 8.248 35.8524 7.96L36.1404 8.824C36.0044 9.24 35.7564 9.556 35.3964 9.772C35.0364 9.988 34.5724 10.096 34.0044 10.096ZM41.5907 10.096C41.0387 10.096 40.5067 10.032 39.9947 9.904C39.4907 9.768 39.0907 9.6 38.7947 9.4L39.4187 8.056C39.7147 8.24 40.0627 8.392 40.4627 8.512C40.8707 8.624 41.2707 8.68 41.6627 8.68C42.0947 8.68 42.3987 8.628 42.5747 8.524C42.7587 8.42 42.8507 8.276 42.8507 8.092C42.8507 7.94 42.7787 7.828 42.6347 7.756C42.4987 7.676 42.3147 7.616 42.0827 7.576C41.8507 7.536 41.5947 7.496 41.3147 7.456C41.0427 7.416 40.7667 7.364 40.4867 7.3C40.2067 7.228 39.9507 7.124 39.7187 6.988C39.4867 6.852 39.2987 6.668 39.1547 6.436C39.0187 6.204 38.9507 5.904 38.9507 5.536C38.9507 5.128 39.0667 4.768 39.2987 4.456C39.5387 4.144 39.8827 3.9 40.3307 3.724C40.7787 3.54 41.3147 3.448 41.9387 3.448C42.3787 3.448 42.8267 3.496 43.2827 3.592C43.7387 3.688 44.1187 3.828 44.4227 4.012L43.7987 5.344C43.4867 5.16 43.1707 5.036 42.8507 4.972C42.5387 4.9 42.2347 4.864 41.9387 4.864C41.5227 4.864 41.2187 4.92 41.0267 5.032C40.8347 5.144 40.7387 5.288 40.7387 5.464C40.7387 5.624 40.8067 5.744 40.9427 5.824C41.0867 5.904 41.2747 5.968 41.5067 6.016C41.7387 6.064 41.9907 6.108 42.2627 6.148C42.5427 6.18 42.8227 6.232 43.1027 6.304C43.3827 6.376 43.6347 6.48 43.8587 6.616C44.0907 6.744 44.2787 6.924 44.4227 7.156C44.5667 7.38 44.6387 7.676 44.6387 8.044C44.6387 8.444 44.5187 8.8 44.2787 9.112C44.0387 9.416 43.6907 9.656 43.2347 9.832C42.7867 10.008 42.2387 10.096 41.5907 10.096ZM45.7937 10V3.544H47.6657V10H45.7937ZM46.7297 2.644C46.3857 2.644 46.1057 2.544 45.8897 2.344C45.6737 2.144 45.5657 1.896 45.5657 1.6C45.5657 1.304 45.6737 1.056 45.8897 0.856001C46.1057 0.656 46.3857 0.556 46.7297 0.556C47.0737 0.556 47.3537 0.652 47.5697 0.844001C47.7857 1.028 47.8937 1.268 47.8937 1.564C47.8937 1.876 47.7857 2.136 47.5697 2.344C47.3617 2.544 47.0817 2.644 46.7297 2.644ZM49.4031 10V1.096H51.2751V10H49.4031ZM53.0124 10V3.544H54.8844V10H53.0124ZM53.9484 2.644C53.6044 2.644 53.3244 2.544 53.1084 2.344C52.8924 2.144 52.7844 1.896 52.7844 1.6C52.7844 1.304 52.8924 1.056 53.1084 0.856001C53.3244 0.656 53.6044 0.556 53.9484 0.556C54.2924 0.556 54.5724 0.652 54.7884 0.844001C55.0044 1.028 55.1124 1.268 55.1124 1.564C55.1124 1.876 55.0044 2.136 54.7884 2.344C54.5804 2.544 54.3004 2.644 53.9484 2.644ZM57.4378 12.424C57.1018 12.424 56.7698 12.372 56.4418 12.268C56.1138 12.164 55.8458 12.02 55.6378 11.836L56.3218 10.504C56.4658 10.632 56.6298 10.732 56.8138 10.804C57.0058 10.876 57.1938 10.912 57.3778 10.912C57.6418 10.912 57.8498 10.848 58.0018 10.72C58.1618 10.6 58.3058 10.396 58.4338 10.108L58.7698 9.316L58.9138 9.112L61.2298 3.544H63.0298L60.1138 10.396C59.9058 10.916 59.6658 11.324 59.3938 11.62C59.1298 11.916 58.8338 12.124 58.5058 12.244C58.1858 12.364 57.8298 12.424 57.4378 12.424ZM58.5418 10.252L55.6618 3.544H57.5938L59.8258 8.944L58.5418 10.252Z" fill="#3380EF"/>
</g>
<defs>
<clipPath id="clip0_1_6">
<rect width="71" height="13" fill="white"/>
</clipPath>
</defs>
</svg>
